<svg xmlns="http://www.w3.org/2000/svg" width="158" height="36" fill="none"><path fill="#F50050" d="M95.054 11.438c-.026 1.403-1.025 2.423-2.382 2.423-1.185 0-1.88-.669-1.861-1.787.024-1.403 1.022-2.42 2.382-2.42 1.185.004 1.88.666 1.86 1.784Zm-5.991-1-3.144 15.68a.262.262 0 0 1-.258.216H82.7a.26.26 0 0 1-.202-.096.263.263 0 0 1-.058-.216c.064-.342.123-.65.186-.923a4.72 4.72 0 0 1-3.582 1.592c-2.944 0-4.921-2.211-4.921-5.5 0-3.999 2.616-6.9 6.224-6.9 1.81 0 3.269.81 4.016 2.122.071-.397 1.215-6.065 1.215-6.065a.267.267 0 0 1 .26-.216h2.965a.267.267 0 0 1 .202.095.265.265 0 0 1 .057.217v-.007Zm-5.75 8.825a2.191 2.191 0 0 0-.407-.914 2.01 2.01 0 0 0-.74-.585 2.383 2.383 0 0 0-1.014-.217 2.817 2.817 0 0 0-1.213.267 3.3 3.3 0 0 0-1.007.725 3.664 3.664 0 0 0-.7 1.083c-.177.412-.28.852-.303 1.3-.023.35.018.7.121 1.035.09.287.241.551.445.773.197.214.44.382.712.49a2.847 2.847 0 0 0 2.06-.046c.347-.144.665-.35.94-.607a3.73 3.73 0 0 0 1.108-2.096c.073-.4.072-.809-.002-1.208Zm10.346-3.697h-3.054a.262.262 0 0 0-.266.195l-2.073 10.276a.23.23 0 0 0 .005.108.217.217 0 0 0 .052.093.284.284 0 0 0 .216.09h3.065a.265.265 0 0 0 .266-.198l2.07-10.276a.215.215 0 0 0-.056-.2.285.285 0 0 0-.225-.089ZM48.064 26.228l-1.527.01H45.32a.268.268 0 0 1-.206-.097.272.272 0 0 1-.065-.217l3.108-15.582a.27.27 0 0 1 .264-.217h6.15c3.58 0 5.718 1.86 5.718 4.982 0 3.558-2.568 5.767-6.714 5.767l-3.601-.024c-.015.08-.591 3.16-.903 4.548a1.056 1.056 0 0 1-1.007.83Zm8.342-10.976c0-1.148-.745-1.778-2.099-1.778 0 0-2.683-.02-2.832-.026-.026.16-.793 3.972-.813 4.065l3.054-.016c1.709 0 2.69-.818 2.69-2.245Zm65.858 4.608c0 3.957-2.921 6.829-6.947 6.829-3.591 0-5.911-2.188-5.911-5.573 0-3.956 2.922-6.828 6.948-6.828 3.591 0 5.91 2.187 5.91 5.572Zm-3.714.217c0-1.438-.91-2.296-2.43-2.296-1.733 0-3 1.3-3 3.112 0 1.436.91 2.294 2.433 2.294 1.737.004 2.991-1.304 2.991-3.106l.006-.004Zm-8.65-9.64-3.142 15.68a.266.266 0 0 1-.26.217h-2.961a.257.257 0 0 1-.201-.096.25.25 0 0 1-.057-.216c.065-.342.124-.65.184-.923a4.719 4.719 0 0 1-3.582 1.592c-2.943 0-4.92-2.211-4.92-5.5 0-3.999 2.618-6.9 6.224-6.9 1.813 0 3.268.81 4.015 2.122.072-.397 1.218-6.065 1.218-6.065a.259.259 0 0 1 .257-.216h2.967a.262.262 0 0 1 .258.305Zm-5.698 8.826a2.252 2.252 0 0 0-.407-.914 2.01 2.01 0 0 0-.741-.585 2.4 2.4 0 0 0-1.016-.217 2.813 2.813 0 0 0-1.212.267 3.303 3.303 0 0 0-1.008.725 3.807 3.807 0 0 0-1 2.382c-.024.35.017.7.119 1.036.086.286.234.55.433.773.199.214.444.38.715.49a2.84 2.84 0 0 0 2.057-.046c.349-.143.668-.349.942-.607.283-.269.522-.582.706-.926.197-.366.332-.76.401-1.17.078-.399.082-.808.011-1.208Zm27.843-4.074a9.203 9.203 0 0 0-4.585-.884c-2.547.217-4.009 1.733-3.814 3.966.117 1.34.884 2.369 2.346 3.142l1.613.845c.65.353.719.517.739.725.041.481-.507.602-.839.63-1.009.09-2.235-.294-3.549-1.104a.268.268 0 0 0-.202-.03.268.268 0 0 0-.164.123l-1.3 2.279a.264.264 0 0 0 .08.346 8.125 8.125 0 0 0 5.345 1.419c2.835-.25 4.343-1.748 4.137-4.115-.126-1.427-.812-2.33-2.382-3.119l-1.454-.734c-.851-.466-.896-.585-.916-.808-.01-.126-.043-.505.771-.576.815-.072 1.869.175 2.909.671a.271.271 0 0 0 .351-.14l1.057-2.292a.27.27 0 0 0 .021-.1.253.253 0 0 0-.078-.187.254.254 0 0 0-.086-.057Zm16.026-4.6a.285.285 0 0 0-.253-.156h-4.197a.293.293 0 0 0-.239.126s-4.16 5.899-4.45 6.462c-.078-.535-2.123-6.376-2.123-6.376a.284.284 0 0 0-.272-.206h-3.667a.285.285 0 0 0-.233.122.275.275 0 0 0-.05.125.28.28 0 0 0 .012.134l3.899 9.848-1.166 5.722a.29.29 0 0 0 .06.236.287.287 0 0 0 .22.104h2.967a.814.814 0 0 0 .797-.65l1.037-5.308 7.639-9.878a.288.288 0 0 0 .013-.305h.006Zm8.958 4.678-2.22 11.147a.256.256 0 0 1-.251.206h-2.892a.255.255 0 0 1-.253-.3c.05-.26.123-.634.184-.918a5.233 5.233 0 0 1-3.799 1.32c-2.657-.124-4.398-1.913-4.426-4.581a7.358 7.358 0 0 1 4.706-6.943 6.384 6.384 0 0 1 2.685-.42 3.844 3.844 0 0 1 2.684 1.34v-.015c.069-.384.179-.936.179-.936a.26.26 0 0 1 .252-.216h2.891a.262.262 0 0 1 .199.093c.025.03.043.066.052.105a.26.26 0 0 1 .002.118h.007ZM152.5 19.63a2.132 2.132 0 0 0-.387-.866 1.89 1.89 0 0 0-.709-.557 2.246 2.246 0 0 0-.968-.201 2.7 2.7 0 0 0-1.156.255 3.158 3.158 0 0 0-.962.693 3.59 3.59 0 0 0-.955 2.276c-.023.334.015.67.113.99a1.927 1.927 0 0 0 1.115 1.204 2.715 2.715 0 0 0 1.964-.043c.332-.138.636-.334.897-.58.272-.256.5-.553.676-.882a3.69 3.69 0 0 0 .383-1.118 3.141 3.141 0 0 0-.017-1.171h.006Zm-79.7-.529a9.455 9.455 0 0 1-.296 2.108.26.26 0 0 1-.255.205l-8.306.026c.022 1.352 1.007 2.127 2.705 2.127a4.895 4.895 0 0 0 2.382-.613.251.251 0 0 1 .301.044l1.822 1.882a.259.259 0 0 1-.041.39 7.717 7.717 0 0 1-4.531 1.407c-3.706 0-6.008-2.127-6.008-5.549 0-3.972 2.872-6.852 6.828-6.852 3.312 0 5.382 1.85 5.382 4.825h.018Zm-3.176-.216c-.046-1.321-.8-2.006-2.298-2.006-1.499 0-2.463.68-3.01 1.993l5.308.013ZM24.492.172h-.416l-1.878-.02H.614a.619.619 0 0 0-.617.626v3.415c0 3.754 2.649 5.82 7.459 5.82l17.036.032a3.262 3.262 0 0 1 0 6.521H5.388a.608.608 0 0 0-.592.455L.276 34.876a.608.608 0 0 0 .592.758h6.064c2.27 0 3.361-1.885 3.617-2.872l1.784-6.497H24.5a13.05 13.05 0 0 0 0-26.102l-.008.009Z"/></svg>